<svg id="Layer_1" data-name="Layer 1" xmlns="http://www.w3.org/2000/svg" viewBox="0 0 291.92 102.28"><defs><style>.cls-1{fill:#44a8af;opacity:0.9;}.cls-2{fill:#fff;}</style></defs><rect class="cls-1" x="25.43" y="0.29" width="128" height="31" rx="6.82"/><path class="cls-2" d="M106.43,104.64l-.33,1.79-.3.11a5.47,5.47,0,0,0-1.25-.68,3.38,3.38,0,0,0-1.24-.25,2.1,2.1,0,0,0-1.48.51,1.57,1.57,0,0,0-.55,1.2,1.31,1.31,0,0,0,.55,1.09,9.39,9.39,0,0,0,1.73,1c.68.33,1.24.63,1.66.89a3.79,3.79,0,0,1,1.09,1.06,2.61,2.61,0,0,1,.46,1.56,3.26,3.26,0,0,1-.54,1.82,3.76,3.76,0,0,1-1.52,1.31,5,5,0,0,1-2.23.48,8.06,8.06,0,0,1-1.73-.2,7.9,7.9,0,0,1-1.69-.61l.24-1.94.25-.11a4.76,4.76,0,0,0,1.55,1,4.12,4.12,0,0,0,1.57.34,2.28,2.28,0,0,0,1.57-.53,1.62,1.62,0,0,0,.59-1.24,1.42,1.42,0,0,0-.57-1.17,9.32,9.32,0,0,0-1.75-1,15.49,15.49,0,0,1-1.63-.86,3.53,3.53,0,0,1-1.07-1,2.66,2.66,0,0,1-.45-1.56,3.27,3.27,0,0,1,.53-1.8,3.7,3.7,0,0,1,1.48-1.28,4.91,4.91,0,0,1,2.17-.47A7.36,7.36,0,0,1,106.43,104.64Z" transform="translate(-63.57 -94.21)"/><path class="cls-2" d="M115,112.07l-5.34,0a3.18,3.18,0,0,0,.7,2.19,2.49,2.49,0,0,0,1.94.75,4.78,4.78,0,0,0,2.56-.78l.19.12-.28,1.56a6.82,6.82,0,0,1-2.7.6,4,4,0,0,1-3.07-1.2,4.71,4.71,0,0,1-1.11-3.3,4.84,4.84,0,0,1,1.1-3.34,3.79,3.79,0,0,1,3-1.24,3.29,3.29,0,0,1,2.46.88,3.37,3.37,0,0,1,.86,2.47,7.18,7.18,0,0,1-.09,1Zm-1.45-1.5a1.91,1.91,0,0,0-.41-1.35,1.47,1.47,0,0,0-1.18-.46,2,2,0,0,0-1.45.56,3,3,0,0,0-.76,1.59l3.77-.08Z" transform="translate(-63.57 -94.21)"/><path class="cls-2" d="M119.21,112.51l.14,3.85h-1.94l.13-3.68-.11-9.5,1.94-.16Z" transform="translate(-63.57 -94.21)"/><path class="cls-2" d="M127.75,103.16l-.12,1.46-.13.11a3.7,3.7,0,0,0-1.46-.36,1.33,1.33,0,0,0-1.05.41,1.86,1.86,0,0,0-.38,1.23l0,1.63h2.24l.06.13-.11,1.11h-2.21l0,3.63.13,3.85h-1.94l.11-3.68,0-3.8h-1.31l-.08-.12.09-1.12h1.3l0-1.31a3.2,3.2,0,0,1,.88-2.48,3.53,3.53,0,0,1,2.56-.86A7,7,0,0,1,127.75,103.16Z" transform="translate(-63.57 -94.21)"/><path class="cls-2" d="M132,110.66v1.22l-4.56.68-.17-.17v-1.21l4.56-.67Z" transform="translate(-63.57 -94.21)"/><path class="cls-2" d="M140.82,112.51l.05,1.82a1,1,0,0,0,.12.49.44.44,0,0,0,.38.14,3.45,3.45,0,0,0,.59-.08l.17.13-.19,1.07a3,3,0,0,1-1.2.42,1.62,1.62,0,0,1-1-.41,1.56,1.56,0,0,1-.46-.92h-.16a11.91,11.91,0,0,1-1,.77,9.83,9.83,0,0,1-1,.54,3.66,3.66,0,0,1-2.92-1.17,4.86,4.86,0,0,1-1-3.3,4.68,4.68,0,0,1,1.14-3.37,4.21,4.21,0,0,1,3.18-1.19,8.33,8.33,0,0,1,1.48.15l0-4.42L141,103Zm-5.12-3a3.35,3.35,0,0,0-.62,2.21,4.08,4.08,0,0,0,.57,2.35,1.82,1.82,0,0,0,1.59.82,2,2,0,0,0,.92-.23,3.43,3.43,0,0,0,.93-.78l0-1.21-.06-3.46a4,4,0,0,0-1.67-.44A2.09,2.09,0,0,0,135.7,109.52Z" transform="translate(-63.57 -94.21)"/><path class="cls-2" d="M145.6,103.79a1.06,1.06,0,0,1,.27.77,1.13,1.13,0,0,1-.28.82,1,1,0,0,1-.78.3,1,1,0,0,1-.77-.28,1.05,1.05,0,0,1-.28-.78,1.1,1.1,0,0,1,.3-.8,1.06,1.06,0,0,1,.8-.3A1,1,0,0,1,145.6,103.79ZM144,112.7l-.06-5,1.9-.17-.07,5,.06,3.84h-1.9Z" transform="translate(-63.57 -94.21)"/><path class="cls-2" d="M153.43,107.89l-.26,1.52-.25.06a3.44,3.44,0,0,0-1.94-.67,1.29,1.29,0,0,0-.9.3,1,1,0,0,0-.33.75.9.9,0,0,0,.39.76,6.41,6.41,0,0,0,1.2.62,10.32,10.32,0,0,1,1.21.61,2.63,2.63,0,0,1,.8.76,2,2,0,0,1,.33,1.18,2.66,2.66,0,0,1-.38,1.36,2.69,2.69,0,0,1-1.12,1,3.82,3.82,0,0,1-1.79.38,6.51,6.51,0,0,1-2.66-.59l.23-1.61.21-.13a4.77,4.77,0,0,0,1.22.75,3.21,3.21,0,0,0,1.21.27,1.42,1.42,0,0,0,1-.33,1,1,0,0,0,.37-.79.9.9,0,0,0-.38-.75,7.45,7.45,0,0,0-1.2-.65,11.19,11.19,0,0,1-1.21-.61,2.51,2.51,0,0,1-.81-.78,2.16,2.16,0,0,1-.33-1.22,2.41,2.41,0,0,1,.85-1.9,3.47,3.47,0,0,1,2.34-.74A5.9,5.9,0,0,1,153.43,107.89Z" transform="translate(-63.57 -94.21)"/><path class="cls-2" d="M160.31,107.57a4.06,4.06,0,0,1,1.1.36l-.32,1.61-.19.08A3.76,3.76,0,0,0,159,109a1.86,1.86,0,0,0-1.58.76,3.48,3.48,0,0,0-.57,2.13,3.83,3.83,0,0,0,.59,2.27,1.93,1.93,0,0,0,1.67.8,4.35,4.35,0,0,0,2-.57l.18.12-.19,1.56a6.6,6.6,0,0,1-2.32.43,3.46,3.46,0,0,1-2.79-1.18,6,6,0,0,1,.07-6.68,3.67,3.67,0,0,1,3-1.24A5.88,5.88,0,0,1,160.31,107.57Z" transform="translate(-63.57 -94.21)"/><path class="cls-2" d="M164.89,112.51l.13,3.85h-1.94l.14-3.68-.12-9.5L165,103Z" transform="translate(-63.57 -94.21)"/><path class="cls-2" d="M174.1,108.58a4.85,4.85,0,0,1,1,3.26,5.12,5.12,0,0,1-1.06,3.48,3.8,3.8,0,0,1-3,1.21,3.54,3.54,0,0,1-2.84-1.15,4.77,4.77,0,0,1-1-3.25,5.12,5.12,0,0,1,1.06-3.48,3.81,3.81,0,0,1,3-1.22A3.6,3.6,0,0,1,174.1,108.58ZM169,111.71a5.06,5.06,0,0,0,.54,2.64,1.78,1.78,0,0,0,1.63.85,1.9,1.9,0,0,0,1.62-.72,3.73,3.73,0,0,0,.53-2.2,5.17,5.17,0,0,0-.53-2.64,1.79,1.79,0,0,0-1.62-.86C169.7,108.78,169,109.76,169,111.71Z" transform="translate(-63.57 -94.21)"/><path class="cls-2" d="M182,107.89l-.27,1.52-.25.06a3.39,3.39,0,0,0-1.93-.67,1.33,1.33,0,0,0-.91.3,1,1,0,0,0-.33.75.9.9,0,0,0,.39.76,6.25,6.25,0,0,0,1.21.62,10.92,10.92,0,0,1,1.2.61,2.63,2.63,0,0,1,.8.76,2,2,0,0,1,.33,1.18,2.57,2.57,0,0,1-.38,1.36,2.63,2.63,0,0,1-1.12,1,3.77,3.77,0,0,1-1.78.38,6.47,6.47,0,0,1-2.66-.59l.23-1.61.2-.13A5,5,0,0,0,178,115a3.26,3.26,0,0,0,1.22.27,1.39,1.39,0,0,0,1-.33,1,1,0,0,0,.38-.79.9.9,0,0,0-.38-.75,8.46,8.46,0,0,0-1.2-.65,11.46,11.46,0,0,1-1.22-.61,2.72,2.72,0,0,1-.81-.78,2.16,2.16,0,0,1-.33-1.22,2.42,2.42,0,0,1,.86-1.9,3.46,3.46,0,0,1,2.33-.74A6,6,0,0,1,182,107.89Z" transform="translate(-63.57 -94.21)"/><path class="cls-2" d="M192.38,115l-.17,1.07a3.11,3.11,0,0,1-1.23.42,1.78,1.78,0,0,1-.91-.41,2,2,0,0,1-.5-.94h-.13a5.88,5.88,0,0,1-2.28,1.33,3.21,3.21,0,0,1-2.19-.67,2.35,2.35,0,0,1-.74-1.9l0-2.37-.08-3.8,1.92-.17-.09,5.81a1.55,1.55,0,0,0,.31,1.1,1.21,1.21,0,0,0,1,.4,3.19,3.19,0,0,0,2.07-.95v-6.19l1.84-.17-.13,6.76a.8.8,0,0,0,.11.48.48.48,0,0,0,.4.15,3.12,3.12,0,0,0,.59-.08Z" transform="translate(-63.57 -94.21)"/><path class="cls-2" d="M198.8,107.62v1.85l-.2,0a2.55,2.55,0,0,0-.71-.09,1.66,1.66,0,0,0-1.1.43,4.53,4.53,0,0,0-1,1.41l0,1.25.12,3.84H194l.13-3.66-.11-5,1.84-.17,0,1.74h.14a3.79,3.79,0,0,1,1.14-1.32,2.27,2.27,0,0,1,1.25-.41A4.26,4.26,0,0,1,198.8,107.62Z" transform="translate(-63.57 -94.21)"/><path class="cls-2" d="M206.75,112.07l-5.34,0a3.18,3.18,0,0,0,.7,2.19,2.49,2.49,0,0,0,1.94.75,4.78,4.78,0,0,0,2.56-.78l.19.12-.28,1.56a6.82,6.82,0,0,1-2.7.6,4,4,0,0,1-3.07-1.2,4.71,4.71,0,0,1-1.11-3.3,4.84,4.84,0,0,1,1.1-3.34,3.79,3.79,0,0,1,3-1.24,3.29,3.29,0,0,1,2.46.88,3.37,3.37,0,0,1,.86,2.47,7.18,7.18,0,0,1-.09,1Zm-1.45-1.5a1.91,1.91,0,0,0-.41-1.35,1.47,1.47,0,0,0-1.18-.46,2,2,0,0,0-1.45.56,3,3,0,0,0-.76,1.59l3.77-.08Z" transform="translate(-63.57 -94.21)"/><rect class="cls-1" y="35.64" width="128" height="31" rx="6.82"/><path class="cls-2" d="M96.47,151.25v.23a8.59,8.59,0,0,1-1.89.4l-.22-.15q-1.57-2.58-2.55-4.37H89.73v.51l.09,3.84h-2L88,148l-.13-8.53,4.14,0a4.09,4.09,0,0,1,2.85.92,3.42,3.42,0,0,1,1,2.64,3.88,3.88,0,0,1-.64,2.19,4.72,4.72,0,0,1-1.77,1.59Q94.71,148.9,96.47,151.25Zm-6.7-5.49,2.09.06a2.5,2.5,0,0,0,1.92-2.62,2.1,2.1,0,0,0-.58-1.6,2.71,2.71,0,0,0-1.76-.57l-1.62.06Z" transform="translate(-63.57 -94.21)"/><path class="cls-2" d="M104.17,147.42l-5.34,0a3.23,3.23,0,0,0,.7,2.19,2.51,2.51,0,0,0,1.94.75,4.81,4.81,0,0,0,2.57-.78l.19.11-.29,1.56a6.6,6.6,0,0,1-2.7.61,3.93,3.93,0,0,1-3.06-1.21,4.67,4.67,0,0,1-1.12-3.29A4.84,4.84,0,0,1,98.17,144a3.8,3.8,0,0,1,3-1.23,3.33,3.33,0,0,1,2.46.87,3.36,3.36,0,0,1,.86,2.47,7.42,7.42,0,0,1-.09,1.05Zm-1.44-1.5a2,2,0,0,0-.41-1.35,1.5,1.5,0,0,0-1.19-.46,2,2,0,0,0-1.44.56,2.83,2.83,0,0,0-.76,1.59l3.76-.08Z" transform="translate(-63.57 -94.21)"/><path class="cls-2" d="M111.14,142.91a5.17,5.17,0,0,1,1.11.36l-.33,1.62-.19.07a3.73,3.73,0,0,0-1.86-.58,1.86,1.86,0,0,0-1.58.76,3.45,3.45,0,0,0-.57,2.12,3.79,3.79,0,0,0,.59,2.27,1.94,1.94,0,0,0,1.67.81,4.39,4.39,0,0,0,2-.57l.17.12-.19,1.55a6.36,6.36,0,0,1-2.32.44,3.4,3.4,0,0,1-2.78-1.19,4.9,4.9,0,0,1-1-3.27A5,5,0,0,1,107,144a3.67,3.67,0,0,1,3-1.24A5.78,5.78,0,0,1,111.14,142.91Z" transform="translate(-63.57 -94.21)"/><path class="cls-2" d="M115.65,139.14a1.1,1.1,0,0,1,.26.77,1.15,1.15,0,0,1-.28.82,1,1,0,0,1-.78.3,1,1,0,0,1-.77-.28,1.22,1.22,0,0,1,0-1.58,1.06,1.06,0,0,1,.81-.3A1,1,0,0,1,115.65,139.14ZM114,148l0-5,1.9-.17-.08,5,.06,3.84h-1.9Z" transform="translate(-63.57 -94.21)"/><path class="cls-2" d="M125.36,144a4.85,4.85,0,0,1,.89,3.12,5.2,5.2,0,0,1-1.12,3.56,4.08,4.08,0,0,1-3.19,1.25,8.35,8.35,0,0,1-1.49-.15l.06,3.5h-1.92l.13-7.19-.13-5,1.86-.17,0,1.26h.14a6.29,6.29,0,0,1,1.12-.82,6.52,6.52,0,0,1,1.16-.49A3,3,0,0,1,125.36,144Zm-1.53,5.78a3.8,3.8,0,0,0,.61-2.33,4.13,4.13,0,0,0-.49-2.22,1.61,1.61,0,0,0-1.43-.77,2.11,2.11,0,0,0-1,.28,4.78,4.78,0,0,0-1.09.86l0,2.32,0,2.26a4,4,0,0,0,1.66.42A2,2,0,0,0,123.83,149.73Z" transform="translate(-63.57 -94.21)"/><path class="cls-2" d="M133,143v1.84l-.21.06a2.46,2.46,0,0,0-.7-.1,1.68,1.68,0,0,0-1.1.44,4.26,4.26,0,0,0-1,1.41l0,1.25.11,3.84h-1.93l.13-3.67-.11-5,1.84-.17,0,1.75h.13a3.61,3.61,0,0,1,1.14-1.32,2.32,2.32,0,0,1,1.26-.41A2.79,2.79,0,0,1,133,143Z" transform="translate(-63.57 -94.21)"/><path class="cls-2" d="M140.79,143.93a4.8,4.8,0,0,1,1,3.26,5.14,5.14,0,0,1-1.06,3.48,3.8,3.8,0,0,1-3,1.21,3.57,3.57,0,0,1-2.85-1.15,4.83,4.83,0,0,1-1-3.26,5.11,5.11,0,0,1,1.06-3.47,3.81,3.81,0,0,1,3-1.22A3.54,3.54,0,0,1,140.79,143.93Zm-5.12,3.13a5.17,5.17,0,0,0,.53,2.64,1.8,1.8,0,0,0,1.64.85,1.86,1.86,0,0,0,1.61-.72,3.69,3.69,0,0,0,.53-2.21,5.07,5.07,0,0,0-.53-2.64,1.76,1.76,0,0,0-1.61-.85C136.39,144.13,135.67,145.1,135.67,147.06Z" transform="translate(-63.57 -94.21)"/><path class="cls-2" d="M148.46,142.91a5.07,5.07,0,0,1,1.1.36l-.32,1.62-.19.07a3.73,3.73,0,0,0-1.86-.58,1.85,1.85,0,0,0-1.58.76,3.45,3.45,0,0,0-.57,2.12,3.72,3.72,0,0,0,.59,2.27,1.94,1.94,0,0,0,1.67.81,4.38,4.38,0,0,0,2-.57l.17.12-.19,1.55a6.31,6.31,0,0,1-2.31.44,3.43,3.43,0,0,1-2.79-1.19,5,5,0,0,1-1-3.27,5,5,0,0,1,1.07-3.4,3.66,3.66,0,0,1,2.94-1.24A5.87,5.87,0,0,1,148.46,142.91Z" transform="translate(-63.57 -94.21)"/><path class="cls-2" d="M153,139.14a1.06,1.06,0,0,1,.27.77,1.16,1.16,0,0,1-.29.82,1.18,1.18,0,0,1-1.55,0,1.09,1.09,0,0,1-.27-.78,1.12,1.12,0,0,1,.29-.8,1.09,1.09,0,0,1,.81-.3A1,1,0,0,1,153,139.14Zm-1.65,8.9-.06-5,1.9-.17-.07,5,0,3.84h-1.9Z" transform="translate(-63.57 -94.21)"/><path class="cls-2" d="M160.35,149.9l.19.14-.19,1.21a5.63,5.63,0,0,1-1.94.57,2.85,2.85,0,0,1-1.71-.78,2.57,2.57,0,0,1-.53-1.74l.08-1.37,0-3.71H155l-.07-.11.09-1.12h1.16V141.6l1.71-.64.17.15,0,1.88h2.44l.07.13-.09,1.1H158l-.1,4.77a1.4,1.4,0,0,0,.24,1,1.11,1.11,0,0,0,.86.28A3,3,0,0,0,160.35,149.9Z" transform="translate(-63.57 -94.21)"/><path class="cls-2" d="M163,144.13l1.9,5.57H165l1.9-5.4.32-1.35h1.67l-3,8.32a8.06,8.06,0,0,1-1,2.06,4.06,4.06,0,0,1-1.35,1.23,8.93,8.93,0,0,1-2.1.78h-.18a4.11,4.11,0,0,1-.79-1.14l.05-.21a6.37,6.37,0,0,0,2.13-.72,4.47,4.47,0,0,0,1.43-1.56l-3.2-8.72,1.83-.1Z" transform="translate(-63.57 -94.21)"/><rect class="cls-1" x="26.45" y="71.28" width="75.36" height="31" rx="5.23"/><path class="cls-2" d="M116.61,175.32l-.11,1.48-2.21-.11h-1l-.1,6.82.1,3.84h-2l.11-3.67-.09-7h-1l-2.24.11-.13-.17.15-1.48h8.44Z" transform="translate(-63.57 -94.21)"/><path class="cls-2" d="M122,178.61v1.84l-.21.06a2.53,2.53,0,0,0-.71-.1,1.68,1.68,0,0,0-1.1.44,4.41,4.41,0,0,0-1,1.41l0,1.25.12,3.84h-1.94l.13-3.67-.11-5,1.84-.17,0,1.75h.14a3.61,3.61,0,0,1,1.14-1.32,2.27,2.27,0,0,1,1.25-.41A2.9,2.9,0,0,1,122,178.61Z" transform="translate(-63.57 -94.21)"/><path class="cls-2" d="M131.6,186l-.17,1.06a3.1,3.1,0,0,1-1.24.42,1.64,1.64,0,0,1-.9-.41,1.9,1.9,0,0,1-.5-.94h-.13a5.76,5.76,0,0,1-2.28,1.33,3.26,3.26,0,0,1-2.19-.66,2.34,2.34,0,0,1-.74-1.9l0-2.38-.08-3.8,1.92-.17-.09,5.82a1.59,1.59,0,0,0,.31,1.1,1.24,1.24,0,0,0,1,.4,3.19,3.19,0,0,0,2.07-1v-6.2l1.84-.17-.13,6.77a.83.83,0,0,0,.11.48.48.48,0,0,0,.4.14,3,3,0,0,0,.59-.07Z" transform="translate(-63.57 -94.21)"/><path class="cls-2" d="M138.17,178.88l-.26,1.52-.25,0a3.48,3.48,0,0,0-1.94-.66,1.29,1.29,0,0,0-.9.3,1,1,0,0,0-.33.74.89.89,0,0,0,.39.76,6.34,6.34,0,0,0,1.2.63,9,9,0,0,1,1.21.61,2.63,2.63,0,0,1,.8.76,2,2,0,0,1,.33,1.18,2.65,2.65,0,0,1-1.5,2.37,3.91,3.91,0,0,1-1.79.38,6.59,6.59,0,0,1-2.65-.59l.22-1.61.21-.14a4.27,4.27,0,0,0,1.22.75,3.09,3.09,0,0,0,1.21.28,1.4,1.4,0,0,0,1-.33,1,1,0,0,0,.37-.79.85.85,0,0,0-.38-.75,7.59,7.59,0,0,0-1.19-.66,9.83,9.83,0,0,1-1.22-.61,2.51,2.51,0,0,1-.81-.78,2.1,2.1,0,0,1-.33-1.21,2.39,2.39,0,0,1,.85-1.9,3.49,3.49,0,0,1,2.34-.74A5.71,5.71,0,0,1,138.17,178.88Z" transform="translate(-63.57 -94.21)"/><path class="cls-2" d="M144.88,185.54l.19.14-.19,1.21a5.63,5.63,0,0,1-1.94.57,2.8,2.8,0,0,1-1.71-.79,2.52,2.52,0,0,1-.53-1.73l.08-1.37,0-3.71h-1.2l-.07-.11.09-1.12h1.16v-1.39l1.71-.64.17.15,0,1.88H145l.07.13-.09,1.1h-2.46l-.09,4.77a1.4,1.4,0,0,0,.24,1,1.15,1.15,0,0,0,.86.28A3,3,0,0,0,144.88,185.54Z" transform="translate(-63.57 -94.21)"/><rect class="cls-1" x="132.41" y="35.64" width="159.51" height="31" rx="7.61"/><path class="cls-2" d="M226.16,151.25l0,.23a8.5,8.5,0,0,1-1.88.4l-.23-.15q-1.58-2.58-2.54-4.37h-2.07v.51l.09,3.84h-2l.13-3.67-.13-8.53,4.14,0a4.09,4.09,0,0,1,2.85.92,3.42,3.42,0,0,1,1,2.64,4,4,0,0,1-.64,2.19,4.83,4.83,0,0,1-1.78,1.59Q224.39,148.9,226.16,151.25Zm-6.71-5.49,2.09.06a2.5,2.5,0,0,0,1.92-2.62,2.06,2.06,0,0,0-.58-1.6,2.68,2.68,0,0,0-1.75-.57l-1.62.06Z" transform="translate(-63.57 -94.21)"/><path class="cls-2" d="M233.86,147.42l-5.34,0a3.18,3.18,0,0,0,.7,2.19,2.49,2.49,0,0,0,1.94.75,4.78,4.78,0,0,0,2.56-.78l.19.11-.28,1.56a6.67,6.67,0,0,1-2.7.61,4,4,0,0,1-3.07-1.21,4.66,4.66,0,0,1-1.11-3.29,4.88,4.88,0,0,1,1.1-3.35,3.82,3.82,0,0,1,3-1.23,3.33,3.33,0,0,1,2.46.87,3.4,3.4,0,0,1,.86,2.47,7.42,7.42,0,0,1-.09,1.05Zm-1.45-1.5a1.91,1.91,0,0,0-.41-1.35,1.47,1.47,0,0,0-1.18-.46,2,2,0,0,0-1.45.56,2.9,2.9,0,0,0-.76,1.59l3.77-.08Z" transform="translate(-63.57 -94.21)"/><path class="cls-2" d="M241.1,143.24l-.27,1.52-.25.05a3.47,3.47,0,0,0-1.93-.66,1.3,1.3,0,0,0-.91.3,1,1,0,0,0-.33.74.89.89,0,0,0,.39.76,6.18,6.18,0,0,0,1.21.63,10.92,10.92,0,0,1,1.2.61,2.63,2.63,0,0,1,.8.76,2,2,0,0,1,.33,1.18,2.51,2.51,0,0,1-.38,1.35,2.59,2.59,0,0,1-1.12,1,3.9,3.9,0,0,1-1.78.38,6.6,6.6,0,0,1-2.66-.59l.22-1.61.21-.14a4.41,4.41,0,0,0,1.22.75,3.09,3.09,0,0,0,1.21.28,1.4,1.4,0,0,0,1-.33,1,1,0,0,0,.37-.79.85.85,0,0,0-.38-.75A8.52,8.52,0,0,0,238,148a11.63,11.63,0,0,1-1.22-.6,2.61,2.61,0,0,1-.81-.78,2.16,2.16,0,0,1-.33-1.22,2.4,2.4,0,0,1,.86-1.9,3.45,3.45,0,0,1,2.33-.74A5.79,5.79,0,0,1,241.1,143.24Z" transform="translate(-63.57 -94.21)"/><path class="cls-2" d="M250.17,144a4.85,4.85,0,0,1,.88,3.12,5.15,5.15,0,0,1-1.12,3.56,4.08,4.08,0,0,1-3.19,1.25,8.24,8.24,0,0,1-1.48-.15l.05,3.5H243.4l.13-7.19-.13-5,1.86-.17,0,1.26h.13a6.67,6.67,0,0,1,1.12-.82,6.52,6.52,0,0,1,1.16-.49A3.05,3.05,0,0,1,250.17,144Zm-1.53,5.78a3.87,3.87,0,0,0,.61-2.33,4.12,4.12,0,0,0-.5-2.22,1.59,1.59,0,0,0-1.42-.77,2.18,2.18,0,0,0-1,.28,5,5,0,0,0-1.09.86l0,2.32,0,2.26a3.87,3.87,0,0,0,1.65.42A2,2,0,0,0,248.64,149.73Z" transform="translate(-63.57 -94.21)"/><path class="cls-2" d="M259.4,143.93a4.8,4.8,0,0,1,1,3.26,5.19,5.19,0,0,1-1.06,3.48,3.81,3.81,0,0,1-3,1.21,3.56,3.56,0,0,1-2.84-1.15,4.83,4.83,0,0,1-1-3.26,5.11,5.11,0,0,1,1.06-3.47,3.81,3.81,0,0,1,3-1.22A3.54,3.54,0,0,1,259.4,143.93Zm-5.12,3.13a5.17,5.17,0,0,0,.53,2.64,1.8,1.8,0,0,0,1.64.85,1.86,1.86,0,0,0,1.61-.72,3.69,3.69,0,0,0,.53-2.21,5.07,5.07,0,0,0-.53-2.64,1.76,1.76,0,0,0-1.61-.85C255,144.13,254.28,145.1,254.28,147.06Z" transform="translate(-63.57 -94.21)"/><path class="cls-2" d="M267.81,146a1.66,1.66,0,0,0-.33-1.13,1.3,1.3,0,0,0-1-.41,3.38,3.38,0,0,0-2.28,1.14l0,2.32.12,3.84h-1.94l.11-3.67-.09-5,1.84-.17,0,1.28h.13a6.24,6.24,0,0,1,2.34-1.35,3.26,3.26,0,0,1,2.21.66,2.34,2.34,0,0,1,.73,1.9l0,2.47.09,3.84h-1.95Z" transform="translate(-63.57 -94.21)"/><path class="cls-2" d="M277.08,143.24l-.27,1.52-.24.05a3.5,3.5,0,0,0-1.94-.66,1.29,1.29,0,0,0-.9.3,1,1,0,0,0-.34.74.89.89,0,0,0,.39.76,6.49,6.49,0,0,0,1.21.63,10.32,10.32,0,0,1,1.21.61,2.74,2.74,0,0,1,.8.76,2,2,0,0,1,.33,1.18,2.6,2.6,0,0,1-.38,1.35,2.71,2.71,0,0,1-1.12,1,3.94,3.94,0,0,1-1.79.38,6.68,6.68,0,0,1-2.66-.59l.23-1.61.21-.14a4.36,4.36,0,0,0,1.21.75,3.14,3.14,0,0,0,1.22.28,1.42,1.42,0,0,0,1-.33,1,1,0,0,0,.37-.79.88.88,0,0,0-.38-.75A8.18,8.18,0,0,0,274,148a11.36,11.36,0,0,1-1.21-.6,2.51,2.51,0,0,1-.81-.78,2.16,2.16,0,0,1-.33-1.22,2.39,2.39,0,0,1,.85-1.9,3.47,3.47,0,0,1,2.34-.74A5.71,5.71,0,0,1,277.08,143.24Z" transform="translate(-63.57 -94.21)"/><path class="cls-2" d="M281.15,139.14a1.1,1.1,0,0,1,.26.77,1.15,1.15,0,0,1-.28.82,1,1,0,0,1-.78.3,1,1,0,0,1-.77-.28,1.22,1.22,0,0,1,0-1.58,1.06,1.06,0,0,1,.81-.3A1,1,0,0,1,281.15,139.14Zm-1.66,8.9-.05-5,1.9-.17-.08,5,.06,3.84h-1.9Z" transform="translate(-63.57 -94.21)"/><path class="cls-2" d="M285.14,144.19l1.63,5.66h.13l2-5.57.31-1.33h1.71l-3.1,8.76h-2.07L283.08,143l1.81-.1Z" transform="translate(-63.57 -94.21)"/><path class="cls-2" d="M298.55,147.42l-5.34,0a3.18,3.18,0,0,0,.71,2.19,2.47,2.47,0,0,0,1.93.75,4.81,4.81,0,0,0,2.57-.78l.19.11-.29,1.56a6.6,6.6,0,0,1-2.7.61,3.93,3.93,0,0,1-3.06-1.21,4.66,4.66,0,0,1-1.11-3.29,4.83,4.83,0,0,1,1.1-3.35,3.8,3.8,0,0,1,3-1.23,3.33,3.33,0,0,1,2.46.87,3.37,3.37,0,0,1,.87,2.47,7.62,7.62,0,0,1-.1,1.05Zm-1.44-1.5a2,2,0,0,0-.41-1.35,1.5,1.5,0,0,0-1.19-.46,2,2,0,0,0-1.44.56,2.83,2.83,0,0,0-.76,1.59l3.76-.08Z" transform="translate(-63.57 -94.21)"/><path class="cls-2" d="M306.42,146a1.61,1.61,0,0,0-.34-1.13,1.26,1.26,0,0,0-1-.41,3.36,3.36,0,0,0-2.28,1.14l0,2.32.11,3.84H301l.11-3.67-.1-5,1.85-.17,0,1.28h.13a6.24,6.24,0,0,1,2.34-1.35,3.26,3.26,0,0,1,2.21.66,2.34,2.34,0,0,1,.73,1.9l-.05,2.47.09,3.84h-2Z" transform="translate(-63.57 -94.21)"/><path class="cls-2" d="M317.29,147.42l-5.34,0a3.18,3.18,0,0,0,.7,2.19,2.49,2.49,0,0,0,1.94.75,4.78,4.78,0,0,0,2.56-.78l.19.11-.28,1.56a6.67,6.67,0,0,1-2.7.61,3.94,3.94,0,0,1-3.07-1.21,4.66,4.66,0,0,1-1.11-3.29,4.88,4.88,0,0,1,1.1-3.35,3.81,3.81,0,0,1,3-1.23,3.3,3.3,0,0,1,2.46.87,3.37,3.37,0,0,1,.87,2.47,6.32,6.32,0,0,1-.1,1.05Zm-1.45-1.5a1.91,1.91,0,0,0-.41-1.35,1.49,1.49,0,0,0-1.18-.46,2,2,0,0,0-1.45.56,2.9,2.9,0,0,0-.76,1.59l3.76-.08Z" transform="translate(-63.57 -94.21)"/><path class="cls-2" d="M324.52,143.24l-.26,1.52-.25.05a3.48,3.48,0,0,0-1.94-.66,1.29,1.29,0,0,0-.9.3,1,1,0,0,0-.33.74.89.89,0,0,0,.39.76,6.34,6.34,0,0,0,1.2.63,10.32,10.32,0,0,1,1.21.61,2.63,2.63,0,0,1,.8.76,2,2,0,0,1,.33,1.18,2.6,2.6,0,0,1-.38,1.35,2.65,2.65,0,0,1-1.12,1,3.91,3.91,0,0,1-1.79.38,6.68,6.68,0,0,1-2.66-.59l.23-1.61.21-.14a4.27,4.27,0,0,0,1.22.75,3.09,3.09,0,0,0,1.21.28,1.42,1.42,0,0,0,1-.33,1,1,0,0,0,.37-.79.85.85,0,0,0-.38-.75,8.18,8.18,0,0,0-1.2-.66,12.4,12.4,0,0,1-1.21-.6,2.51,2.51,0,0,1-.81-.78,2.16,2.16,0,0,1-.33-1.22,2.39,2.39,0,0,1,.85-1.9,3.47,3.47,0,0,1,2.34-.74A5.71,5.71,0,0,1,324.52,143.24Z" transform="translate(-63.57 -94.21)"/><path class="cls-2" d="M331.67,143.24l-.27,1.52-.25.05a3.45,3.45,0,0,0-1.93-.66,1.33,1.33,0,0,0-.91.3,1,1,0,0,0-.33.74.89.89,0,0,0,.39.76,6.18,6.18,0,0,0,1.21.63,10.92,10.92,0,0,1,1.2.61,2.63,2.63,0,0,1,.8.76,2,2,0,0,1,.33,1.18,2.51,2.51,0,0,1-.38,1.35,2.59,2.59,0,0,1-1.12,1,3.9,3.9,0,0,1-1.78.38,6.64,6.64,0,0,1-2.66-.59l.23-1.61.2-.14a4.41,4.41,0,0,0,1.22.75,3.1,3.1,0,0,0,1.22.28,1.39,1.39,0,0,0,1-.33,1,1,0,0,0,.38-.79.86.86,0,0,0-.39-.75,8.52,8.52,0,0,0-1.19-.66,11.63,11.63,0,0,1-1.22-.6,2.72,2.72,0,0,1-.81-.78,2.16,2.16,0,0,1-.33-1.22,2.4,2.4,0,0,1,.86-1.9,3.46,3.46,0,0,1,2.33-.74A5.76,5.76,0,0,1,331.67,143.24Z" transform="translate(-63.57 -94.21)"/><rect class="cls-1" x="106.42" y="71.28" width="159.51" height="31" rx="7.61"/><path class="cls-2" d="M201.36,185.68l.12.17-.14,1.5h-7.2l.14-3.67-.14-8.53h7.24l.12.17-.16,1.5-2.88-.07-2.32,0-.06,3.55,2.2,0,2-.06.13.15-.15,1.5-2.15,0-2.07,0,0,1.58.06,2.24,2.32,0Z" transform="translate(-63.57 -94.21)"/><path class="cls-2" d="M204.69,179.46l1.56,2.36,1.46-2.39.45-.84h1.73l-2.62,4.29,2.79,4.39-2,.17-.42-1L206,184l-1.62,2.55-.4.8h-1.73l2.68-4.43-2.68-4.27,2.06-.12Z" transform="translate(-63.57 -94.21)"/><path class="cls-2" d="M218.49,179.59a4.85,4.85,0,0,1,.88,3.12,5.15,5.15,0,0,1-1.12,3.56,4.08,4.08,0,0,1-3.19,1.25,8.24,8.24,0,0,1-1.48-.15l.06,3.49h-1.92l.13-7.18-.13-5,1.86-.17,0,1.26h.13a6.67,6.67,0,0,1,1.12-.82,6.13,6.13,0,0,1,1.16-.49A3.05,3.05,0,0,1,218.49,179.59ZM217,185.37a3.8,3.8,0,0,0,.61-2.33,4.22,4.22,0,0,0-.49-2.22,1.61,1.61,0,0,0-1.43-.77,2.18,2.18,0,0,0-1,.28,5,5,0,0,0-1.09.86l0,2.32,0,2.26a3.94,3.94,0,0,0,1.65.42A2,2,0,0,0,217,185.37Z" transform="translate(-63.57 -94.21)"/><path class="cls-2" d="M226.16,178.61v1.84l-.21.06a2.48,2.48,0,0,0-.71-.1,1.68,1.68,0,0,0-1.1.44,4.41,4.41,0,0,0-1,1.41v1.25l.11,3.84h-1.94l.13-3.67-.11-5,1.84-.17,0,1.75h.14a3.61,3.61,0,0,1,1.14-1.32,2.29,2.29,0,0,1,1.25-.41A2.9,2.9,0,0,1,226.16,178.61Z" transform="translate(-63.57 -94.21)"/><path class="cls-2" d="M234.1,183.06h-5.34a3.24,3.24,0,0,0,.7,2.2,2.49,2.49,0,0,0,1.94.75,4.84,4.84,0,0,0,2.57-.78l.19.11-.29,1.56a6.6,6.6,0,0,1-2.7.61,4,4,0,0,1-3.07-1.21A4.66,4.66,0,0,1,227,183a4.88,4.88,0,0,1,1.1-3.35,3.82,3.82,0,0,1,3-1.23,3.33,3.33,0,0,1,2.46.87,3.4,3.4,0,0,1,.86,2.47,7.42,7.42,0,0,1-.09,1.05Zm-1.44-1.51a2,2,0,0,0-.41-1.34,1.51,1.51,0,0,0-1.19-.46,2,2,0,0,0-1.44.56,2.84,2.84,0,0,0-.77,1.59l3.77-.08Z" transform="translate(-63.57 -94.21)"/><path class="cls-2" d="M241.34,178.88l-.27,1.52-.24,0a3.5,3.5,0,0,0-1.94-.66,1.33,1.33,0,0,0-.91.3,1,1,0,0,0-.33.74.89.89,0,0,0,.39.76,6.18,6.18,0,0,0,1.21.63,9.4,9.4,0,0,1,1.2.61,2.63,2.63,0,0,1,.8.76,2,2,0,0,1,.33,1.18,2.59,2.59,0,0,1-.37,1.35,2.68,2.68,0,0,1-1.13,1,3.9,3.9,0,0,1-1.78.38,6.64,6.64,0,0,1-2.66-.59l.23-1.61.21-.14a4.22,4.22,0,0,0,1.21.75,3.1,3.1,0,0,0,1.22.28,1.43,1.43,0,0,0,1-.33,1.06,1.06,0,0,0,.37-.79.88.88,0,0,0-.38-.75,8.31,8.31,0,0,0-1.2-.66,10.59,10.59,0,0,1-1.22-.61,2.72,2.72,0,0,1-.81-.78,2.1,2.1,0,0,1-.33-1.21,2.4,2.4,0,0,1,.86-1.9,3.47,3.47,0,0,1,2.34-.74A5.71,5.71,0,0,1,241.34,178.88Z" transform="translate(-63.57 -94.21)"/><path class="cls-2" d="M248.48,178.88l-.26,1.52-.25,0a3.5,3.5,0,0,0-1.94-.66,1.29,1.29,0,0,0-.9.3,1,1,0,0,0-.33.74.89.89,0,0,0,.39.76,6,6,0,0,0,1.2.63,9,9,0,0,1,1.21.61,2.74,2.74,0,0,1,.8.76,2,2,0,0,1,.33,1.18,2.6,2.6,0,0,1-.38,1.35,2.65,2.65,0,0,1-1.12,1,3.94,3.94,0,0,1-1.79.38,6.68,6.68,0,0,1-2.66-.59l.23-1.61.21-.14a4.36,4.36,0,0,0,1.21.75,3.14,3.14,0,0,0,1.22.28,1.42,1.42,0,0,0,1-.33,1,1,0,0,0,.37-.79.88.88,0,0,0-.38-.75,7.33,7.33,0,0,0-1.2-.66,9.62,9.62,0,0,1-1.21-.61,2.51,2.51,0,0,1-.81-.78,2.1,2.1,0,0,1-.33-1.21,2.39,2.39,0,0,1,.85-1.9,3.47,3.47,0,0,1,2.34-.74A5.71,5.71,0,0,1,248.48,178.88Z" transform="translate(-63.57 -94.21)"/><path class="cls-2" d="M252.55,174.78a1.09,1.09,0,0,1,.26.77,1.15,1.15,0,0,1-.28.82,1,1,0,0,1-.78.3,1,1,0,0,1-.77-.28,1.11,1.11,0,0,1,.83-1.89A1,1,0,0,1,252.55,174.78Zm-1.66,8.9,0-5,1.9-.17-.08,5,.06,3.84h-1.9Z" transform="translate(-63.57 -94.21)"/><path class="cls-2" d="M256.54,179.83l1.63,5.66h.13l2-5.57.31-1.33h1.71l-3.1,8.76h-2.07l-2.62-8.72,1.8-.1Z" transform="translate(-63.57 -94.21)"/><path class="cls-2" d="M270,183.06h-5.34a3.24,3.24,0,0,0,.71,2.2,2.47,2.47,0,0,0,1.93.75,4.81,4.81,0,0,0,2.57-.78l.19.11-.29,1.56a6.59,6.59,0,0,1-2.69.61,3.94,3.94,0,0,1-3.07-1.21,4.66,4.66,0,0,1-1.11-3.29,4.83,4.83,0,0,1,1.1-3.35,3.8,3.8,0,0,1,3-1.23,3.3,3.3,0,0,1,2.46.87,3.37,3.37,0,0,1,.87,2.47,7.62,7.62,0,0,1-.1,1.05Zm-1.44-1.51a2,2,0,0,0-.41-1.34,1.5,1.5,0,0,0-1.19-.46,2,2,0,0,0-1.44.56,2.83,2.83,0,0,0-.76,1.59l3.76-.08Z" transform="translate(-63.57 -94.21)"/><path class="cls-2" d="M277.82,181.59a1.64,1.64,0,0,0-.33-1.13,1.3,1.3,0,0,0-1-.41,3.36,3.36,0,0,0-2.28,1.14l0,2.32.11,3.84h-1.93l.11-3.67-.09-5,1.84-.17,0,1.28h.13a6.24,6.24,0,0,1,2.34-1.35,3.26,3.26,0,0,1,2.21.66,2.33,2.33,0,0,1,.73,1.9l-.05,2.47.09,3.84h-1.95Z" transform="translate(-63.57 -94.21)"/><path class="cls-2" d="M288.69,183.06h-5.34a3.19,3.19,0,0,0,.7,2.2A2.49,2.49,0,0,0,286,186a4.78,4.78,0,0,0,2.56-.78l.19.11-.28,1.56a6.67,6.67,0,0,1-2.7.61,4,4,0,0,1-3.07-1.21,4.66,4.66,0,0,1-1.11-3.29,4.88,4.88,0,0,1,1.1-3.35,3.82,3.82,0,0,1,3-1.23,3.33,3.33,0,0,1,2.46.87,3.4,3.4,0,0,1,.86,2.47,7.42,7.42,0,0,1-.09,1.05Zm-1.45-1.51a1.9,1.9,0,0,0-.41-1.34,1.47,1.47,0,0,0-1.18-.46,2,2,0,0,0-1.45.56,2.9,2.9,0,0,0-.76,1.59l3.76-.08Z" transform="translate(-63.57 -94.21)"/><path class="cls-2" d="M295.92,178.88l-.26,1.52-.25,0a3.48,3.48,0,0,0-1.94-.66,1.29,1.29,0,0,0-.9.3,1,1,0,0,0-.33.74.89.89,0,0,0,.39.76,6.34,6.34,0,0,0,1.2.63,9,9,0,0,1,1.21.61,2.63,2.63,0,0,1,.8.76,2,2,0,0,1,.33,1.18,2.65,2.65,0,0,1-1.5,2.37,3.91,3.91,0,0,1-1.79.38,6.59,6.59,0,0,1-2.65-.59l.22-1.61.21-.14a4.27,4.27,0,0,0,1.22.75,3.09,3.09,0,0,0,1.21.28,1.4,1.4,0,0,0,1-.33,1,1,0,0,0,.37-.79.85.85,0,0,0-.38-.75,7.59,7.59,0,0,0-1.19-.66,9.83,9.83,0,0,1-1.22-.61,2.51,2.51,0,0,1-.81-.78,2.1,2.1,0,0,1-.33-1.21,2.37,2.37,0,0,1,.86-1.9,3.45,3.45,0,0,1,2.33-.74A5.71,5.71,0,0,1,295.92,178.88Z" transform="translate(-63.57 -94.21)"/><path class="cls-2" d="M303.07,178.88l-.27,1.52-.24,0a3.5,3.5,0,0,0-1.94-.66,1.33,1.33,0,0,0-.91.3,1,1,0,0,0-.33.74.89.89,0,0,0,.39.76,6.18,6.18,0,0,0,1.21.63,9.4,9.4,0,0,1,1.2.61,2.52,2.52,0,0,1,.8.76,2,2,0,0,1,.34,1.18,2.6,2.6,0,0,1-.38,1.35,2.68,2.68,0,0,1-1.13,1,3.9,3.9,0,0,1-1.78.38,6.64,6.64,0,0,1-2.66-.59l.23-1.61.21-.14a4.22,4.22,0,0,0,1.21.75,3.1,3.1,0,0,0,1.22.28,1.43,1.43,0,0,0,1-.33,1.06,1.06,0,0,0,.37-.79.88.88,0,0,0-.38-.75,8.31,8.31,0,0,0-1.2-.66,10.59,10.59,0,0,1-1.22-.61,2.58,2.58,0,0,1-.8-.78,2,2,0,0,1-.34-1.21,2.4,2.4,0,0,1,.86-1.9,3.47,3.47,0,0,1,2.34-.74A5.71,5.71,0,0,1,303.07,178.88Z" transform="translate(-63.57 -94.21)"/><rect class="cls-1" x="157.23" width="99.73" height="31" rx="6.02"/><path class="cls-2" d="M245.39,104.79a3.53,3.53,0,0,1,1,2.71,4.24,4.24,0,0,1-1.27,3.25,4.81,4.81,0,0,1-3.46,1.2h-1.35v.28l.09,3.84h-2l.13-3.67-.13-8.53,4.14,0A4,4,0,0,1,245.39,104.79Zm-1.58,4.74a3,3,0,0,0,.55-1.86,2.26,2.26,0,0,0-.58-1.69,2.63,2.63,0,0,0-1.76-.59l-1.62.06-.07,4.94,1.9,0A2.57,2.57,0,0,0,243.81,109.53Z" transform="translate(-63.57 -94.21)"/><path class="cls-2" d="M252.92,107.33v1.84l-.2.06a2.55,2.55,0,0,0-.71-.09,1.66,1.66,0,0,0-1.1.43,4.41,4.41,0,0,0-1,1.41l0,1.25.12,3.84h-1.94l.13-3.67-.11-5,1.84-.17,0,1.75h.14a3.61,3.61,0,0,1,1.14-1.32,2.27,2.27,0,0,1,1.25-.41A4.26,4.26,0,0,1,252.92,107.33Z" transform="translate(-63.57 -94.21)"/><path class="cls-2" d="M260.87,111.78l-5.34,0a3.18,3.18,0,0,0,.7,2.19,2.49,2.49,0,0,0,1.94.75,4.78,4.78,0,0,0,2.56-.78l.19.12-.28,1.55a6.67,6.67,0,0,1-2.7.61,4,4,0,0,1-3.07-1.2,4.71,4.71,0,0,1-1.11-3.3,4.84,4.84,0,0,1,1.1-3.34,3.79,3.79,0,0,1,3-1.24,3.33,3.33,0,0,1,2.46.87,3.4,3.4,0,0,1,.86,2.47,7.31,7.31,0,0,1-.09,1Zm-1.45-1.5a1.91,1.91,0,0,0-.41-1.35,1.47,1.47,0,0,0-1.18-.46,2,2,0,0,0-1.45.56,2.93,2.93,0,0,0-.76,1.59l3.76-.08Z" transform="translate(-63.57 -94.21)"/><path class="cls-2" d="M268.11,107.6l-.27,1.52-.25,0a3.47,3.47,0,0,0-1.93-.66,1.3,1.3,0,0,0-.91.3,1,1,0,0,0-.33.74.89.89,0,0,0,.39.76,6.18,6.18,0,0,0,1.21.63,10.92,10.92,0,0,1,1.2.61,2.63,2.63,0,0,1,.8.76,2,2,0,0,1,.33,1.18,2.57,2.57,0,0,1-.38,1.36,2.63,2.63,0,0,1-1.12,1,3.77,3.77,0,0,1-1.78.38,6.44,6.44,0,0,1-2.66-.59l.22-1.61.21-.14a4.7,4.7,0,0,0,1.22.76,3.25,3.25,0,0,0,1.21.27,1.4,1.4,0,0,0,1-.33,1,1,0,0,0,.37-.79.85.85,0,0,0-.38-.75,8.52,8.52,0,0,0-1.19-.66,9.94,9.94,0,0,1-1.22-.6A2.61,2.61,0,0,1,263,111a2.16,2.16,0,0,1-.33-1.22,2.42,2.42,0,0,1,.86-1.9,3.45,3.45,0,0,1,2.33-.74A6,6,0,0,1,268.11,107.6Z" transform="translate(-63.57 -94.21)"/><path class="cls-2" d="M276.85,111.78l-5.34,0a3.18,3.18,0,0,0,.7,2.19,2.49,2.49,0,0,0,1.94.75,4.78,4.78,0,0,0,2.56-.78l.19.12-.28,1.55a6.67,6.67,0,0,1-2.7.61,4,4,0,0,1-3.07-1.2,4.71,4.71,0,0,1-1.11-3.3,4.84,4.84,0,0,1,1.1-3.34,3.79,3.79,0,0,1,3-1.24,3.33,3.33,0,0,1,2.46.87,3.4,3.4,0,0,1,.86,2.47,7.31,7.31,0,0,1-.09,1Zm-1.45-1.5a1.91,1.91,0,0,0-.41-1.35,1.47,1.47,0,0,0-1.18-.46,2,2,0,0,0-1.45.56,2.93,2.93,0,0,0-.76,1.59l3.76-.08Z" transform="translate(-63.57 -94.21)"/><path class="cls-2" d="M284.71,110.31a1.66,1.66,0,0,0-.33-1.13,1.27,1.27,0,0,0-1-.41,3.37,3.37,0,0,0-2.28,1.15l0,2.31.12,3.84h-1.94l.11-3.67-.09-5,1.84-.17,0,1.28h.14a6.13,6.13,0,0,1,2.33-1.35,3.27,3.27,0,0,1,2.22.66,2.38,2.38,0,0,1,.73,1.9l-.06,2.47.1,3.84h-2Z" transform="translate(-63.57 -94.21)"/><path class="cls-2" d="M293.72,107.27a5.07,5.07,0,0,1,1.1.36l-.32,1.62-.19.08a3.72,3.72,0,0,0-1.87-.59,1.84,1.84,0,0,0-1.57.76,3.45,3.45,0,0,0-.57,2.12,3.77,3.77,0,0,0,.59,2.28,2,2,0,0,0,1.67.8,4.38,4.38,0,0,0,2-.57l.17.12-.19,1.55a6.32,6.32,0,0,1-2.32.44,3.41,3.41,0,0,1-2.78-1.19,5,5,0,0,1-1-3.27,5,5,0,0,1,1.07-3.4,3.66,3.66,0,0,1,2.94-1.24A6.61,6.61,0,0,1,293.72,107.27Z" transform="translate(-63.57 -94.21)"/><path class="cls-2" d="M302.9,111.78l-5.34,0a3.18,3.18,0,0,0,.7,2.19,2.48,2.48,0,0,0,1.94.75,4.78,4.78,0,0,0,2.56-.78l.19.12-.28,1.55a6.67,6.67,0,0,1-2.7.61,4,4,0,0,1-3.07-1.2,4.71,4.71,0,0,1-1.11-3.3,4.84,4.84,0,0,1,1.1-3.34,3.79,3.79,0,0,1,3-1.24,3.3,3.3,0,0,1,2.46.87,3.37,3.37,0,0,1,.87,2.47,6.23,6.23,0,0,1-.1,1Zm-1.45-1.5a2,2,0,0,0-.41-1.35,1.49,1.49,0,0,0-1.18-.46,2,2,0,0,0-1.45.56,2.93,2.93,0,0,0-.76,1.59l3.76-.08Z" transform="translate(-63.57 -94.21)"/></svg>